<svg width="34" height="34" viewBox="0 0 34 34" fill="none" xmlns="http://www.w3.org/2000/svg">
<path d="M17 0.333252C7.81671 0.333252 0.333374 7.81659 0.333374 16.9999C0.333374 26.1833 7.81671 33.6666 17 33.6666C26.1834 33.6666 33.6667 26.1833 33.6667 16.9999C33.6667 7.81659 26.1834 0.333252 17 0.333252ZM23.6667 18.2499H18.25V23.6666C18.25 24.3499 17.6834 24.9166 17 24.9166C16.3167 24.9166 15.75 24.3499 15.75 23.6666V18.2499H10.3334C9.65004 18.2499 9.08337 17.6833 9.08337 16.9999C9.08337 16.3166 9.65004 15.7499 10.3334 15.7499H15.75V10.3333C15.75 9.64992 16.3167 9.08325 17 9.08325C17.6834 9.08325 18.25 9.64992 18.25 10.3333V15.7499H23.6667C24.35 15.7499 24.9167 16.3166 24.9167 16.9999C24.9167 17.6833 24.35 18.2499 23.6667 18.2499Z" fill="#308CBF"/>
</svg>
