<svg width="23" height="22" viewBox="0 0 23 22" fill="none" xmlns="http://www.w3.org/2000/svg">
<path fill-rule="evenodd" clip-rule="evenodd" d="M0.263172 15.5C0.263172 11.9331 3.09172 9 6.63159 9C10.1715 9 13 11.9331 13 15.5C13 19.0669 10.1715 22 6.63159 22C5.90394 22 5.20298 21.875 4.54947 21.6444C4.44146 21.6063 4.37446 21.5827 4.32533 21.5664C4.31641 21.5635 4.30911 21.5611 4.30327 21.5593L4.29784 21.5599C4.26354 21.5637 4.21679 21.57 4.13013 21.5818L1.13533 21.9908C0.811274 22.0351 0.486057 21.9181 0.264477 21.6775C0.0428973 21.4369 -0.0470388 21.1032 0.0236505 20.7839L0.634995 18.0222C0.656237 17.9262 0.667605 17.8744 0.674907 17.8363C0.675321 17.8342 0.676044 17.8303 0.676044 17.8303C0.674228 17.824 0.671927 17.8162 0.669051 17.8066C0.652584 17.7521 0.628366 17.6778 0.588998 17.5573C0.377313 16.9093 0.263172 16.2171 0.263172 15.5Z" fill="#1774F7"/>
<path d="M4.14754 7.3726C4.92512 7.13071 5.75395 7 6.61788 7C11.3313 7 15.0001 10.8907 15.0001 15.5C15.0001 16.3136 14.8858 17.1049 14.6716 17.8563C15.2136 17.759 15.7393 17.6136 16.2438 17.4246C16.315 17.3979 16.386 17.3707 16.4579 17.3461C16.5159 17.3528 16.5737 17.3619 16.6315 17.3703L19.8444 17.8413C19.9961 17.8636 20.1682 17.8889 20.3182 17.8974C20.4843 17.9069 20.7426 17.9058 21.0162 17.7882C21.3579 17.6412 21.6328 17.3726 21.7876 17.0343C21.9115 16.7635 21.9185 16.5054 21.9129 16.3391C21.9078 16.1888 21.8865 16.0162 21.8677 15.864L21.4617 12.5661C21.4512 12.4804 21.4457 12.4354 21.4425 12.4024C21.4601 12.3301 21.4931 12.2602 21.5195 12.1909C21.8983 11.1979 22.1053 10.1219 22.1053 9C22.1053 4.02326 18.0461 0 13.0526 0C8.61686 0 4.9183 3.17483 4.14754 7.3726Z" fill="#1774F7"/>
</svg>
