<svg width="16" height="16" viewBox="0 0 16 16" fill="none" xmlns="http://www.w3.org/2000/svg">
<path d="M14.6667 14.6668L13.3334 13.3335M7.66671 14.0002C8.49841 14.0002 9.32197 13.8363 10.0904 13.5181C10.8588 13.1998 11.5569 12.7333 12.1451 12.1452C12.7332 11.5571 13.1997 10.8589 13.5179 10.0905C13.8362 9.3221 14 8.49853 14 7.66683C14 6.83512 13.8362 6.01156 13.5179 5.24317C13.1997 4.47477 12.7332 3.77659 12.1451 3.18849C11.5569 2.60038 10.8588 2.13387 10.0904 1.81559C9.32197 1.49731 8.49841 1.3335 7.66671 1.3335C5.987 1.3335 4.37609 2.00076 3.18836 3.18849C2.00063 4.37622 1.33337 5.98713 1.33337 7.66683C1.33337 9.34653 2.00063 10.9574 3.18836 12.1452C4.37609 13.3329 5.987 14.0002 7.66671 14.0002V14.0002Z" stroke="black" stroke-opacity="0.6" stroke-width="1.5" stroke-linecap="round" stroke-linejoin="round"/>
</svg>
